# xmcd CD database file
#
# Track frame offsets:
#	150
#	10256
#	23101
#	34085
#	45731
#	60606
#	73780
#	86842
#
# Disc length: 1327 seconds
#
# Revision: 0
# Processed by: cddbd v1.5.2PL0 Copyright (c) Steve Scherf et al.
# Submitted via: CDex 1.70beta2
#
DISCID=65052d08
DTITLE=Loran Marshall - Drinkin' for My Thinkin'
DYEAR=2006
DGENRE=Country
TTITLE0=Drinkin' for My Thinkin'
TTITLE1=Free
TTITLE2=I Always Wanted to Sing
TTITLE3=Let's Pray and Support Our Troops
TTITLE4=Shade Tree Mechanic
TTITLE5=Our First Dance
TTITLE6=One False Move and You'll be Mine
TTITLE7=Adam's Rib
EXTD=YEAR: 2006
EXTT0=
EXTT1=
EXTT2=
EXTT3=
EXTT4=
EXTT5=
EXTT6=
EXTT7=
PLAYORDER=
